<svg preserveAspectRatio="none" overflow="visible" style="display: block;" width="24" height="24" viewBox="0 0 24 24" fill="none" xmlns="http://www.w3.org/2000/svg">
<g id="Filled/Information">
<path id="Vector" d="M11.998 2.00098C6.47805 2.00098 1.99805 6.48098 1.99805 12.001C1.99805 17.521 6.47805 22.001 11.998 22.001C17.518 22.001 21.998 17.521 21.998 12.001C21.998 6.48098 17.518 2.00098 11.998 2.00098ZM11.998 17.001C11.448 17.001 10.998 16.551 10.998 16.001V12.001C10.998 11.451 11.448 11.001 11.998 11.001C12.548 11.001 12.998 11.451 12.998 12.001V16.001C12.998 16.551 12.548 17.001 11.998 17.001ZM12.998 9.00098H10.998V7.00098H12.998V9.00098Z" fill="#333638"/>
</g>
</svg>
